<?xml version="1.0" standalone="no"?>
<!DOCTYPE svg PUBLIC "-//W3C//DTD SVG 20010904//EN"
 "http://www.w3.org/TR/2001/REC-SVG-20010904/DTD/svg10.dtd">
<svg version="1.0" xmlns="http://www.w3.org/2000/svg"
 width="700.000000pt" height="700.000000pt" viewBox="0 0 700.000000 700.000000"
 preserveAspectRatio="xMidYMid meet">
<metadata>
Created by potrace 1.14, written by Peter Selinger 2001-2017
</metadata>
<g transform="translate(0.000000,700.000000) scale(0.100000,-0.100000)"
fill="#000000" stroke="none">
<path d="M3455 6210 c-6 -9 -89 -25 -132 -24 -12 0 -20 -4 -17 -8 5 -8 1 -9
-46 -12 -14 -1 -36 -8 -50 -16 -14 -8 -35 -15 -46 -15 -12 0 -28 -5 -35 -11
-8 -6 -32 -19 -54 -29 -22 -9 -48 -24 -57 -33 -10 -8 -18 -12 -18 -8 0 4 -17
-4 -37 -18 -20 -14 -41 -22 -46 -19 -6 3 -7 1 -3 -5 6 -11 -6 -16 -27 -13 -4
0 -6 -3 -5 -8 2 -5 0 -8 -3 -7 -4 0 -16 -10 -28 -24 -11 -14 -20 -21 -21 -16
0 5 -11 -3 -24 -19 -15 -17 -28 -25 -36 -20 -9 5 -11 4 -6 -3 6 -10 -26 -52
-39 -52 -3 0 -5 -3 -6 -7 0 -5 -10 -13 -22 -20 -12 -7 -18 -12 -14 -13 5 0 -4
-13 -20 -29 -15 -16 -37 -41 -48 -57 -11 -15 -29 -36 -40 -47 -11 -11 -13 -16
-5 -12 11 6 10 3 -2 -12 -10 -11 -18 -25 -18 -31 0 -7 -4 -12 -8 -12 -5 0 -14
-11 -21 -24 -13 -23 -17 -23 -131 -24 -106 0 -123 -2 -161 -23 -27 -16 -50
-39 -65 -66 -21 -41 -21 -43 -22 -650 0 -334 -1 -618 -1 -630 -1 -21 -2 -21
-48 -6 -27 8 -55 16 -63 18 -8 2 -44 12 -80 23 -225 71 -242 75 -251 61 -5 -8
-43 -70 -84 -139 -42 -69 -202 -334 -356 -589 -185 -307 -277 -467 -271 -475
9 -11 9 -28 -4 -96 -4 -19 -8 -42 -9 -51 -1 -9 -109 -178 -241 -375 -247 -370
-413 -624 -523 -799 -34 -55 -96 -152 -136 -215 -46 -71 -74 -126 -75 -143 0
-27 1 -28 43 -22 23 3 53 8 67 10 14 2 45 7 70 10 25 3 56 8 70 10 14 3 45 7
70 10 39 5 85 12 270 40 39 5 89 12 165 21 28 3 54 7 59 7 6 1 10 -140 10
-361 0 -361 0 -362 20 -356 38 10 149 45 256 79 58 18 173 54 255 80 83 26
204 64 270 85 177 57 384 122 520 165 66 20 145 45 175 55 30 10 127 41 215
68 88 28 297 94 465 147 168 53 384 121 480 151 96 31 193 62 215 69 22 8 83
27 135 43 163 51 409 129 565 178 83 27 152 49 155 49 3 1 28 9 55 17 28 9 93
30 145 46 52 17 282 89 510 162 228 72 420 133 425 134 6 1 84 26 175 55 91
29 244 77 340 107 96 31 186 59 200 64 20 8 128 36 210 55 8 2 53 14 100 25
47 12 93 23 103 25 10 2 27 7 37 10 10 3 27 7 37 10 89 17 113 28 113 50 0 12
-6 22 -12 22 -7 1 -65 17 -128 36 -189 58 -845 254 -990 296 -94 28 -117 35
-655 196 -269 81 -551 164 -625 186 -74 22 -135 41 -137 42 -1 2 2 19 7 40 7
31 4 43 -15 71 -21 31 -28 50 -39 116 -8 45 -38 174 -53 228 -15 54 -8 82 21
82 6 0 17 9 24 20 7 12 17 18 22 15 6 -3 10 1 10 9 0 8 9 18 20 21 11 4 19 9
16 13 -2 4 7 17 20 30 13 12 24 20 24 16 0 -4 11 8 23 27 13 19 29 33 34 32 6
-1 10 5 9 15 0 9 5 16 12 14 8 -1 11 2 7 7 -3 6 3 19 15 31 11 11 19 21 18 23
-5 5 29 47 34 41 3 -3 5 3 5 13 -1 10 3 17 10 16 7 -2 10 4 7 12 -4 8 2 27 12
43 18 27 20 31 23 53 0 5 6 7 12 4 6 -4 9 -1 8 6 -2 8 5 31 14 53 9 21 17 47
17 58 0 10 5 16 10 13 6 -4 10 -3 9 2 -6 34 2 51 24 49 57 -7 127 63 145 144
7 33 7 158 0 190 -15 66 -74 139 -113 140 -14 0 -22 7 -23 23 -3 48 -8 73 -15
85 -5 7 -4 12 2 12 6 0 11 5 11 11 0 5 -4 8 -9 5 -10 -6 -21 26 -21 62 0 12
-4 22 -10 22 -5 0 -10 10 -10 23 0 13 -5 28 -12 35 -7 7 -9 12 -5 12 4 0 1 14
-8 30 -9 17 -12 30 -8 30 5 0 3 4 -3 8 -20 13 -43 71 -30 76 6 2 3 5 -6 5 -15
1 -47 41 -33 41 4 0 -1 7 -9 16 -9 8 -13 20 -10 26 4 7 2 8 -4 4 -7 -4 -12 -3
-12 3 0 5 -12 23 -26 40 -14 17 -22 36 -18 42 4 7 3 9 -3 6 -8 -5 -73 56 -73
68 0 2 -16 19 -35 38 -19 19 -35 33 -35 31 0 -3 -13 8 -28 24 -15 15 -36 31
-45 35 -11 4 -15 12 -11 18 4 7 3 9 -3 6 -6 -4 -30 9 -54 28 -24 19 -50 35
-56 35 -7 0 -13 5 -13 10 0 6 -7 10 -15 10 -8 0 -15 5 -15 10 0 6 -3 9 -7 8
-14 -3 -64 22 -60 29 3 5 -8 9 -25 9 -17 1 -33 6 -37 11 -3 5 -27 15 -53 23
-27 7 -48 15 -48 19 0 3 -16 7 -36 8 -21 1 -42 10 -51 20 -8 10 -11 12 -8 5 5
-10 -2 -12 -32 -7 -21 4 -47 9 -58 13 -11 3 -26 5 -32 4 -7 -2 -22 2 -34 9
-15 8 -19 8 -15 0 4 -6 2 -11 -3 -11 -6 0 -11 3 -11 8 0 4 -40 7 -90 7 -49 0
-90 -2 -90 -5 0 -3 -11 -6 -25 -6 -14 -1 -22 2 -19 7 3 5 3 9 0 9 -3 0 -8 -4
-11 -10z m-1568 -3176 c-3 -3 -12 -4 -19 -1 -8 3 -5 6 6 6 11 1 17 -2 13 -5z
m40 0 c-3 -3 -12 -4 -19 -1 -8 3 -5 6 6 6 11 1 17 -2 13 -5z m166 -11 c-13 -2
-33 -2 -45 0 -13 2 -3 4 22 4 25 0 35 -2 23 -4z m130 -10 c-7 -2 -21 -2 -30 0
-10 3 -4 5 12 5 17 0 24 -2 18 -5z m294 -19 c-3 -3 -12 -4 -19 -1 -8 3 -5 6 6
6 11 1 17 -2 13 -5z m220 -10 c-3 -3 -12 -4 -19 -1 -8 3 -5 6 6 6 11 1 17 -2
13 -5z"/>
</g>
</svg>
