<?xml version="1.0" encoding="UTF-8" standalone="no"?><!-- Generator: Gravit.io --><svg xmlns="http://www.w3.org/2000/svg" xmlns:xlink="http://www.w3.org/1999/xlink" style="isolation:isolate" viewBox="0 0 1000 1000" width="1000pt" height="1000pt"><defs><clipPath id="_clipPath_JUAkYECpjFNnw0eLmN6eDl6EjYpBPEdo"><rect width="1000" height="1000"/></clipPath></defs><g clip-path="url(#_clipPath_JUAkYECpjFNnw0eLmN6eDl6EjYpBPEdo)"><path d="M 374.98 354.95 L 491.84 354.95 C 498.104 354.95 503.19 360.036 503.19 366.3 L 503.19 525.47 C 503.19 531.734 498.104 536.82 491.84 536.82 L 374.98 536.82 C 368.716 536.82 363.63 531.734 363.63 525.47 L 363.63 366.3 C 363.63 360.036 368.716 354.95 374.98 354.95 Z" style="stroke:none;fill:#E8E8E8;stroke-miterlimit:10;"/><path d="M 374.98 354.95 L 491.84 354.95 C 498.104 354.95 503.19 360.036 503.19 366.3 L 503.19 525.47 C 503.19 531.734 498.104 536.82 491.84 536.82 L 374.98 536.82 C 368.716 536.82 363.63 531.734 363.63 525.47 L 363.63 366.3 C 363.63 360.036 368.716 354.95 374.98 354.95 Z" style="fill:none;stroke:#000000;stroke-width:4;stroke-linecap:square;stroke-miterlimit:2;"/><g><path d=" M 343.077 561 L 270 555 L 264.555 586.191 L 250.959 610.939 L 267.662 610.098 L 742.356 586.191 L 343.077 561 Z " fill="rgb(255,255,255)" vector-effect="non-scaling-stroke" stroke-width="3" stroke="rgb(0,0,0)" stroke-linejoin="miter" stroke-linecap="square" stroke-miterlimit="3"/><path d=" M 268.439 554.018 L 326.708 457.5 L 757.894 586.191" fill="rgb(255,255,255)" vector-effect="non-scaling-stroke" stroke-width="3" stroke="rgb(0,0,0)" stroke-linejoin="miter" stroke-linecap="square" stroke-miterlimit="3"/><path d=" M 255.575 682.709 L 255.575 742 L 709.337 598.565 L 529.437 636.925 L 255.575 682.709 Z " fill="rgb(255,255,255)" vector-effect="non-scaling-stroke" stroke-width="3" stroke="rgb(0,0,0)" stroke-linejoin="miter" stroke-linecap="square" stroke-miterlimit="3"/><g><path d=" M 445.48 461.66 Q 437.259 452.656 421.64 469.639 Q 406.021 486.622 433.149 590.943 Q 511.059 594.448 511.151 590.943 Q 511.244 587.439 553.168 590.943 Q 549.058 456.43 517.82 457.509 Q 486.582 458.587 445.48 461.66 Z " fill="rgb(235,235,235)" vector-effect="non-scaling-stroke" stroke-width="2" stroke="rgb(0,0,0)" stroke-linejoin="miter" stroke-linecap="square" stroke-miterlimit="3"/><path d=" M 617 602.064 Q 605.217 564.055 595.627 551.925 C 586.036 539.795 553.568 525.286 542 543.886 Q 530.432 562.486 527.66 561.629 Q 560.278 556.508 571.787 580.229 Q 583.296 603.951 587.406 607.608 L 617 602.064 Z " fill="rgb(235,235,235)" vector-effect="non-scaling-stroke" stroke-width="2" stroke="rgb(0,0,0)" stroke-linejoin="miter" stroke-linecap="square" stroke-miterlimit="3"/><path d=" M 511.151 590.943 L 523.08 587.441 L 541.445 582.048 L 556.456 605.5 L 593 598 Q 570.979 570.187 556.456 558.596 Q 541.934 547.004 524.66 553.743 L 484 582.048 Q 507.77 589.057 511.151 590.943 Z " fill="rgb(235,235,235)" vector-effect="non-scaling-stroke" stroke-width="2" stroke="rgb(0,0,0)" stroke-linejoin="miter" stroke-linecap="square" stroke-miterlimit="3"/></g><path d=" M 532.59 643.112 L 186.863 692.609 Q 235.421 615.64 268.439 568 L 757.894 586.191 L 532.59 643.112 Z " fill="rgb(255,255,255)" vector-effect="non-scaling-stroke" stroke-width="3" stroke="rgb(0,0,0)" stroke-linejoin="miter" stroke-linecap="square" stroke-miterlimit="3"/><path d=" M 429.901 497.069 C 421.53 497.425 416.679 497.001 415.348 495.797 Q 410.024 588.495 427 593 C 427.24 593.064 431.303 591.961 431.626 592 C 448.482 565.645 457.957 569.131 469 584 L 465.017 568.253 L 446.689 495.797 Q 436.732 496.779 429.901 497.069 Z " fill="rgb(235,235,235)" vector-effect="non-scaling-stroke" stroke-width="2" stroke="rgb(0,0,0)" stroke-linejoin="miter" stroke-linecap="square" stroke-miterlimit="3"/><rect x="417.401" y="491.797" width="30.599" height="8" transform="matrix(1,0,0,1,0,0)" fill="rgb(235,235,235)" vector-effect="non-scaling-stroke" stroke-width="1" stroke="rgb(235,235,235)" stroke-linejoin="miter" stroke-linecap="square" stroke-miterlimit="2"/><rect x="442.877" y="500.326" width="16.498" height="15.43" transform="matrix(0.082,0.997,-0.997,0.082,920.569,16.876)" fill="rgb(235,235,235)" vector-effect="non-scaling-stroke" stroke-width="1" stroke="rgb(235,235,235)" stroke-linejoin="miter" stroke-linecap="square" stroke-miterlimit="2"/></g><g><mask id="_mask_vo414wl7pDnLGhyiJo1YKWbzgoEfIXIU"><ellipse vector-effect="non-scaling-stroke" cx="480.55550182950384" cy="400.35396122139707" rx="100.51456221844904" ry="100.05249154240892" fill="white" stroke="none"/></mask><ellipse vector-effect="non-scaling-stroke" cx="480.55550182950384" cy="400.35396122139707" rx="100.51456221844904" ry="100.05249154240892" fill="rgb(235,235,235)"/><ellipse vector-effect="non-scaling-stroke" cx="480.55550182950384" cy="400.35396122139707" rx="100.51456221844904" ry="100.05249154240892" fill="rgb(235,235,235)" mask="url(#_mask_vo414wl7pDnLGhyiJo1YKWbzgoEfIXIU)" stroke-width="4" stroke="rgb(0,0,0)" stroke-linejoin="miter" stroke-linecap="square" stroke-miterlimit="3"/><mask id="_mask_PLylYzPwzuwb4NtoFensBuMdRXDE2GYH"><path d=" M 560.02 390.422 C 569.532 432.435 542.603 473.863 499.921 482.877 C 457.239 491.892 414.864 465.102 405.352 423.089 C 395.84 381.077 422.769 339.649 465.451 330.634 C 508.133 321.62 550.508 348.41 560.02 390.422 Z " fill="white" stroke="none"/></mask><path d=" M 560.02 390.422 C 569.532 432.435 542.603 473.863 499.921 482.877 C 457.239 491.892 414.864 465.102 405.352 423.089 C 395.84 381.077 422.769 339.649 465.451 330.634 C 508.133 321.62 550.508 348.41 560.02 390.422 Z " fill="rgb(151,151,151)"/><path d=" M 560.02 390.422 C 569.532 432.435 542.603 473.863 499.921 482.877 C 457.239 491.892 414.864 465.102 405.352 423.089 C 395.84 381.077 422.769 339.649 465.451 330.634 C 508.133 321.62 550.508 348.41 560.02 390.422 Z " fill="rgb(151,151,151)" mask="url(#_mask_PLylYzPwzuwb4NtoFensBuMdRXDE2GYH)" vector-effect="non-scaling-stroke" stroke-width="4" stroke="rgb(0,0,0)" stroke-linejoin="miter" stroke-linecap="square" stroke-miterlimit="3"/><path d=" M 537 461 C 527.67 468.5 516.434 477.462 503.823 480.125 C 480.873 484.972 458.012 482.657 440.301 470 C 425.072 459.118 411.398 439.76 407 420.337 C 402.588 400.85 408.27 381.489 417.484 365.437 C 418.154 412.178 434.326 442.566 465.996 456.595 C 484.221 465.282 508.088 463.912 537 461 L 537 461 Z " fill="rgb(123,123,123)"/><path d=" M 547.673 379.628 C 548.116 376.137 548.022 372.514 547.312 368.866 C 543.765 350.629 526.182 338.631 508.071 342.091 C 502.719 343.114 497.917 345.372 493.897 348.516 L 493.897 348.516 C 506.129 347.551 516.177 348.699 523.771 352.635 C 534.093 357.62 540.31 366.823 542.427 380.237 L 547.673 379.628 L 547.673 379.628 Z " fill="rgb(208,208,208)"/><path d=" M 434.591 413.497 C 432.169 410.586 432.518 406.425 435.37 404.212 C 438.222 401.999 442.504 402.566 444.926 405.478 C 447.348 408.39 446.999 412.551 444.147 414.764 C 441.295 416.977 437.013 416.409 434.591 413.497 Z " fill="rgb(235,235,235)"/><mask id="_mask_kSE7rKiE9UU6ydVSVIlqOXMUU9kEoM4x"><ellipse vector-effect="non-scaling-stroke" cx="579.4127317097451" cy="407.4472907575469" rx="12.262705658693562" ry="18.95853455606209" fill="white" stroke="none"/></mask><ellipse vector-effect="non-scaling-stroke" cx="579.4127317097451" cy="407.4472907575469" rx="12.262705658693562" ry="18.95853455606209" fill="rgb(142,142,142)"/><ellipse vector-effect="non-scaling-stroke" cx="579.4127317097451" cy="407.4472907575469" rx="12.262705658693562" ry="18.95853455606209" fill="rgb(142,142,142)" mask="url(#_mask_kSE7rKiE9UU6ydVSVIlqOXMUU9kEoM4x)" stroke-width="2" stroke="rgb(0,0,0)" stroke-linejoin="miter" stroke-linecap="square" stroke-miterlimit="3"/><path d=" M 445.088 426.117 C 443.615 424.346 443.842 421.805 445.594 420.445 C 447.346 419.086 449.964 419.42 451.437 421.191 C 452.91 422.961 452.683 425.503 450.931 426.862 C 449.179 428.222 446.561 427.888 445.088 426.117 Z " fill="rgb(235,235,235)"/><mask id="_mask_iCjDUVepYlI4VL0L7VQzc1QhzyYiDCLy"><ellipse vector-effect="non-scaling-stroke" cx="581.0700640479531" cy="407.44729075754685" rx="10.605373320485683" ry="18.95853455606209" fill="white" stroke="none"/></mask><ellipse vector-effect="non-scaling-stroke" cx="581.0700640479531" cy="407.44729075754685" rx="10.605373320485683" ry="18.95853455606209" fill="rgb(235,235,235)"/><ellipse vector-effect="non-scaling-stroke" cx="581.0700640479531" cy="407.44729075754685" rx="10.605373320485683" ry="18.95853455606209" fill="rgb(235,235,235)" mask="url(#_mask_iCjDUVepYlI4VL0L7VQzc1QhzyYiDCLy)" stroke-width="2" stroke="rgb(0,0,0)" stroke-linejoin="miter" stroke-linecap="square" stroke-miterlimit="3"/><mask id="_mask_r1Gc4SRGRZQpCVKnUrhoco3zJDewj4Bg"><ellipse vector-effect="non-scaling-stroke" cx="469.2548177507078" cy="547.2499999999999" rx="8.254817750707844" ry="8.25" fill="white" stroke="none"/></mask><ellipse vector-effect="non-scaling-stroke" cx="469.2548177507078" cy="547.2499999999999" rx="8.254817750707844" ry="8.25" fill="rgb(134,134,134)"/><ellipse vector-effect="non-scaling-stroke" cx="469.2548177507078" cy="547.2499999999999" rx="8.254817750707844" ry="8.25" fill="rgb(134,134,134)" mask="url(#_mask_r1Gc4SRGRZQpCVKnUrhoco3zJDewj4Bg)" stroke-width="2" stroke="rgb(0,0,0)" stroke-linejoin="miter" stroke-linecap="square" stroke-miterlimit="3"/><mask id="_mask_pLg8vvntEBgDNzhOjRuUTMQ8Zdqblhqf"><ellipse vector-effect="non-scaling-stroke" cx="490.9648673008942" cy="546" rx="5.683866379019321" ry="5.375" fill="white" stroke="none"/></mask><ellipse vector-effect="non-scaling-stroke" cx="490.9648673008942" cy="546" rx="5.683866379019321" ry="5.375" fill="rgb(134,134,134)"/><ellipse vector-effect="non-scaling-stroke" cx="490.9648673008942" cy="546" rx="5.683866379019321" ry="5.375" fill="rgb(134,134,134)" mask="url(#_mask_pLg8vvntEBgDNzhOjRuUTMQ8Zdqblhqf)" stroke-width="2" stroke="rgb(0,0,0)" stroke-linejoin="miter" stroke-linecap="square" stroke-miterlimit="3"/><mask id="_mask_VqCj2icM4ovJIm8V5C9IcBNNTAeZmgMs"><ellipse vector-effect="non-scaling-stroke" cx="470.77893188656066" cy="547.25" rx="7.7076675415947875" ry="8.25" fill="white" stroke="none"/></mask><ellipse vector-effect="non-scaling-stroke" cx="470.77893188656066" cy="547.25" rx="7.7076675415947875" ry="8.25" fill="rgb(221,221,221)"/><ellipse vector-effect="non-scaling-stroke" cx="470.77893188656066" cy="547.25" rx="7.7076675415947875" ry="8.25" fill="rgb(221,221,221)" mask="url(#_mask_VqCj2icM4ovJIm8V5C9IcBNNTAeZmgMs)" stroke-width="2" stroke="rgb(0,0,0)" stroke-linejoin="miter" stroke-linecap="square" stroke-miterlimit="3"/><mask id="_mask_txACSpfk6zfK5BSIywN5vaeyrV7NF3T4"><ellipse vector-effect="non-scaling-stroke" cx="492.0142982339781" cy="546.0000000000001" rx="5.307125332545638" ry="5.375" fill="white" stroke="none"/></mask><ellipse vector-effect="non-scaling-stroke" cx="492.0142982339781" cy="546.0000000000001" rx="5.307125332545638" ry="5.375" fill="rgb(221,221,221)"/><ellipse vector-effect="non-scaling-stroke" cx="492.0142982339781" cy="546.0000000000001" rx="5.307125332545638" ry="5.375" fill="rgb(221,221,221)" mask="url(#_mask_txACSpfk6zfK5BSIywN5vaeyrV7NF3T4)" stroke-width="2" stroke="rgb(0,0,0)" stroke-linejoin="miter" stroke-linecap="square" stroke-miterlimit="3"/><mask id="_mask_PVKQ139aTtVZxJnH2z2bEE0Urqdau287"><ellipse vector-effect="non-scaling-stroke" cx="583.2945703579448" cy="407.4472907575468" rx="4.308675668329329" ry="6.218984849071148" fill="white" stroke="none"/></mask><ellipse vector-effect="non-scaling-stroke" cx="583.2945703579448" cy="407.4472907575468" rx="4.308675668329329" ry="6.218984849071148" fill="rgb(225,225,225)"/><ellipse vector-effect="non-scaling-stroke" cx="583.2945703579448" cy="407.4472907575468" rx="4.308675668329329" ry="6.218984849071148" fill="rgb(225,225,225)" mask="url(#_mask_PVKQ139aTtVZxJnH2z2bEE0Urqdau287)" stroke-width="2" stroke="rgb(0,0,0)" stroke-linejoin="miter" stroke-linecap="square" stroke-miterlimit="3"/></g><path d="M 524.949 512.872 L 541.869 511.221 C 545.439 510.873 548.621 513.489 548.969 517.059 L 548.969 517.059 C 549.317 520.629 546.701 523.81 543.131 524.158 L 526.211 525.809 C 522.641 526.157 519.459 523.541 519.111 519.971 L 519.111 519.971 C 518.763 516.401 521.379 513.22 524.949 512.872 Z" style="stroke:none;fill:#CCCCCC;stroke-miterlimit:10;"/><path d="M 524.949 512.872 L 541.869 511.221 C 545.439 510.873 548.621 513.489 548.969 517.059 L 548.969 517.059 C 549.317 520.629 546.701 523.81 543.131 524.158 L 526.211 525.809 C 522.641 526.157 519.459 523.541 519.111 519.971 L 519.111 519.971 C 518.763 516.401 521.379 513.22 524.949 512.872 Z" style="fill:none;stroke:#000000;stroke-width:4;stroke-linecap:square;stroke-miterlimit:2;"/><path d="M 478.834 514.001 L 523.098 508.261 C 523.842 508.165 524.524 508.69 524.62 509.434 L 527.229 529.547 C 527.325 530.291 526.8 530.973 526.056 531.069 L 481.792 536.809 C 481.048 536.905 480.366 536.38 480.27 535.636 L 477.661 515.523 C 477.565 514.779 478.09 514.097 478.834 514.001 Z" style="stroke:none;fill:#CCCCCC;stroke-miterlimit:10;"/><path d="M 478.834 514.001 L 523.098 508.261 C 523.842 508.165 524.524 508.69 524.62 509.434 L 527.229 529.547 C 527.325 530.291 526.8 530.973 526.056 531.069 L 481.792 536.809 C 481.048 536.905 480.366 536.38 480.27 535.636 L 477.661 515.523 C 477.565 514.779 478.09 514.097 478.834 514.001 Z" style="fill:none;stroke:#000000;stroke-width:4;stroke-linecap:square;stroke-miterlimit:2;"/><path d="M 480.369 531.058 L 525.964 525.146 C 526.34 525.097 526.685 525.363 526.734 525.739 L 527.314 530.213 C 527.363 530.589 527.097 530.934 526.721 530.982 L 481.126 536.894 C 480.75 536.943 480.405 536.677 480.356 536.301 L 479.776 531.827 C 479.727 531.451 479.993 531.106 480.369 531.058 Z" style="stroke:none;fill:#868686;stroke-miterlimit:10;"/><path d="M 480.369 531.058 L 525.964 525.146 C 526.34 525.097 526.685 525.363 526.734 525.739 L 527.314 530.213 C 527.363 530.589 527.097 530.934 526.721 530.982 L 481.126 536.894 C 480.75 536.943 480.405 536.677 480.356 536.301 L 479.776 531.827 C 479.727 531.451 479.993 531.106 480.369 531.058 Z" style="fill:none;stroke:#000000;stroke-width:4;stroke-linecap:square;stroke-miterlimit:2;"/><path d="M 475.388 536.748 L 473.352 515.062 C 473.328 514.8 473.52 514.568 473.782 514.543 L 478.693 514.082 C 478.955 514.058 479.187 514.25 479.212 514.512 L 481.248 536.198 C 481.272 536.46 481.08 536.692 480.818 536.717 L 475.907 537.178 C 475.645 537.202 475.413 537.01 475.388 536.748 Z" style="stroke:none;fill:#868686;stroke-miterlimit:10;"/><path d="M 475.388 536.748 L 473.352 515.062 C 473.328 514.8 473.52 514.568 473.782 514.543 L 478.693 514.082 C 478.955 514.058 479.187 514.25 479.212 514.512 L 481.248 536.198 C 481.272 536.46 481.08 536.692 480.818 536.717 L 475.907 537.178 C 475.645 537.202 475.413 537.01 475.388 536.748 Z" style="fill:none;stroke:#000000;stroke-width:4;stroke-linecap:square;stroke-miterlimit:2;"/><mask id="_mask_4gQDZ4mrQ5xQOnhrCmeswBK3pkx6DZ8E"><path d=" M 480.445 529.268 C 480.358 529.282 480.269 529.284 480.178 529.284 C 477.242 529.284 474.858 527.267 474.858 524.784 C 474.858 522.559 476.77 520.709 479.274 520.336 L 480.445 529.268 L 480.445 529.268 Z " fill="white" stroke="none"/></mask><path d=" M 480.445 529.268 C 480.358 529.282 480.269 529.284 480.178 529.284 C 477.242 529.284 474.858 527.267 474.858 524.784 C 474.858 522.559 476.77 520.709 479.274 520.336 L 480.445 529.268 L 480.445 529.268 Z " fill="rgb(204,204,204)"/><path d=" M 480.445 529.268 C 480.358 529.282 480.269 529.284 480.178 529.284 C 477.242 529.284 474.858 527.267 474.858 524.784 C 474.858 522.559 476.77 520.709 479.274 520.336 L 480.445 529.268 L 480.445 529.268 Z " fill="rgb(204,204,204)" mask="url(#_mask_4gQDZ4mrQ5xQOnhrCmeswBK3pkx6DZ8E)" vector-effect="non-scaling-stroke" stroke-width="2" stroke="rgb(0,0,0)" stroke-linejoin="miter" stroke-linecap="square" stroke-miterlimit="3"/><line x1="415" y1="555" x2="461" y2="553" vector-effect="non-scaling-stroke" stroke-width="2" stroke="rgb(0,0,0)" stroke-linejoin="miter" stroke-linecap="square" stroke-miterlimit="3"/><path d="M 435.618 568.227 L 443.795 565.557 C 454.761 561.975 466.572 567.972 470.153 578.939 L 472.763 586.933 C 476.344 597.9 470.348 609.712 459.382 613.293 L 451.205 615.963 C 440.239 619.545 428.428 613.548 424.847 602.581 L 422.237 594.587 C 418.656 583.62 424.652 571.808 435.618 568.227 Z" style="stroke:none;fill:#EBEBEB;stroke-miterlimit:10;"/><path d="M 435.618 568.227 L 443.795 565.557 C 454.761 561.975 466.572 567.972 470.153 578.939 L 472.763 586.933 C 476.344 597.9 470.348 609.712 459.382 613.293 L 451.205 615.963 C 440.239 619.545 428.428 613.548 424.847 602.581 L 422.237 594.587 C 418.656 583.62 424.652 571.808 435.618 568.227 Z" style="fill:none;stroke:#000000;stroke-width:4;stroke-linecap:square;stroke-miterlimit:2;"/><path d=" M 427 585 Q 444.752 567.748 455.491 571.944 Q 466.23 576.141 468 583 C 435.418 604.262 423.771 602.282 429 589 Q 429.317 588.195 427 585 Z " fill="rgb(235,235,235)" vector-effect="non-scaling-stroke" stroke-width="1" stroke="rgb(235,235,235)" stroke-linejoin="miter" stroke-linecap="square" stroke-miterlimit="3"/><mask id="_mask_PVXPJN03DJPIsQfsvGScwROvMG5ckTh5"><circle vector-effect="non-scaling-stroke" cx="470.8789852432453" cy="547.5" r="1.5" fill="white" stroke="none"/></mask><circle vector-effect="non-scaling-stroke" cx="470.8789852432453" cy="547.5" r="1.5" fill="rgb(166,166,166)"/><circle vector-effect="non-scaling-stroke" cx="470.8789852432453" cy="547.5" r="1.5" fill="rgb(166,166,166)" mask="url(#_mask_PVXPJN03DJPIsQfsvGScwROvMG5ckTh5)" stroke-width="2" stroke="rgb(0,0,0)" stroke-linejoin="miter" stroke-linecap="square" stroke-miterlimit="3"/><mask id="_mask_KEDRarkU2f9FQqrZbAvMazPv8V3BzPph"><ellipse vector-effect="non-scaling-stroke" cx="492.0831901135255" cy="546.162878787879" rx="1.032827110907192" ry="0.9772727272727479" fill="white" stroke="none"/></mask><ellipse vector-effect="non-scaling-stroke" cx="492.0831901135255" cy="546.162878787879" rx="1.032827110907192" ry="0.9772727272727479" fill="rgb(166,166,166)"/><ellipse vector-effect="non-scaling-stroke" cx="492.0831901135255" cy="546.162878787879" rx="1.032827110907192" ry="0.9772727272727479" fill="rgb(166,166,166)" mask="url(#_mask_KEDRarkU2f9FQqrZbAvMazPv8V3BzPph)" stroke-width="2" stroke="rgb(0,0,0)" stroke-linejoin="miter" stroke-linecap="square" stroke-miterlimit="3"/></g></svg>